<svg xmlns="http://www.w3.org/2000/svg" version="1.1" xmlns:xlink="http://www.w3.org/1999/xlink" xmlns:svgjs="http://svgjs.dev/svgjs" width="2000" height="272" viewBox="0 0 2000 272"><g transform="matrix(1,0,0,1,-1.2121212121210192,0.8276615977140978)"><svg viewBox="0 0 396 54" data-background-color="#f9f9f9" preserveAspectRatio="xMidYMid meet" height="272" width="2000" xmlns="http://www.w3.org/2000/svg" xmlns:xlink="http://www.w3.org/1999/xlink"><g id="tight-bounds" transform="matrix(1,0,0,1,0.23999999999995225,-0.1643151701344152)"><svg viewBox="0 0 395.52 54.32863034026881" height="54.32863034026881" width="395.52"><g><svg viewBox="0 0 473.65670449291406 65.06148868978931" height="54.32863034026881" width="395.52"><g transform="matrix(1,0,0,1,78.1367044929141,4.8379339721231815)"><svg viewBox="0 0 395.52 55.38562074554295" height="55.38562074554295" width="395.52"><g id="textblocktransform"><svg viewBox="0 0 395.52 55.38562074554295" height="55.38562074554295" width="395.52" id="textblock"><g><svg viewBox="0 0 395.52 55.38562074554295" height="55.38562074554295" width="395.52"><g transform="matrix(1,0,0,1,0,0)"><svg width="395.52" viewBox="2.25 -36.5 308.48 43.2" height="55.38562074554295" data-palette-color="#030303"><path d="M30 5.95L30 5.95 4.55 5.95Q3.35 5.95 2.8 5.4 2.25 4.85 2.25 3.65L2.25 3.65 2.25-28.75Q2.25-29.4 2.43-29.85 2.6-30.3 2.95-30.6L2.95-30.6 9.4-36.05Q9.65-36.25 10.08-36.38 10.5-36.5 11-36.5L11-36.5 18.75-36.5Q19.95-36.5 20.5-35.95 21.05-35.4 21.05-34.2L21.05-34.2 21.05-13.85 21.15-13.95 27.6-19.4Q27.85-19.6 28.28-19.73 28.7-19.85 29.2-19.85L29.2-19.85 36.45-19.85Q37.65-19.85 38.2-19.3 38.75-18.75 38.75-17.55L38.75-17.55 38.75-1.8Q38.75-1.15 38.58-0.7 38.4-0.25 38.05 0.05L38.05 0.05 31.55 5.45Q31.35 5.65 30.93 5.8 30.5 5.95 30 5.95ZM11 0L36.45 0Q37.4 0 37.83-0.43 38.25-0.85 38.25-1.8L38.25-1.8 38.25-17.55Q38.25-18.5 37.83-18.93 37.4-19.35 36.45-19.35L36.45-19.35 29.2-19.35Q28.25-19.35 27.83-18.93 27.4-18.5 27.4-17.55L27.4-17.55 27.4-9.45 20.55-9.45 20.55-34.2Q20.55-35.15 20.13-35.58 19.7-36 18.75-36L18.75-36 11-36Q10.05-36 9.63-35.58 9.2-35.15 9.2-34.2L9.2-34.2 9.2-1.8Q9.2-0.85 9.63-0.43 10.05 0 11 0L11 0ZM33.05-4.5L14.65-4.5 14.65-31.5 15.15-31.5 15.15-5 32.55-5 32.55-14.85 33.05-14.85 33.05-4.5ZM64.8 5.95L64.8 5.95 43.5 5.95Q42.3 5.95 41.75 5.4 41.2 4.85 41.2 3.65L41.2 3.65 41.2-2.3Q41.2-2.95 41.37-3.4 41.55-3.85 41.9-4.15L41.9-4.15 47.95-9.25 47.95-20.4 43.5-20.4Q42.3-20.4 41.75-20.95 41.2-21.5 41.2-22.7L41.2-22.7 41.2-28.75Q41.2-29.4 41.37-29.85 41.55-30.3 41.9-30.6L41.9-30.6 48.35-36.05Q48.6-36.25 49.02-36.38 49.45-36.5 49.95-36.5L49.95-36.5 71.25-36.5Q72.45-36.5 73-35.95 73.55-35.4 73.55-34.2L73.55-34.2 73.55-28.15Q73.55-27.5 73.37-27.05 73.2-26.6 72.85-26.3L72.85-26.3 66.9-21.3 66.9-10.05 71.25-10.05Q72.45-10.05 73-9.5 73.55-8.95 73.55-7.75L73.55-7.75 73.55-1.8Q73.55-1.15 73.37-0.7 73.2-0.25 72.85 0.05L72.85 0.05 66.35 5.45Q66.15 5.65 65.72 5.8 65.3 5.95 64.8 5.95ZM49.95 0L49.95 0 71.25 0Q72.2 0 72.62-0.43 73.05-0.85 73.05-1.8L73.05-1.8 73.05-7.75Q73.05-8.7 72.62-9.13 72.2-9.55 71.25-9.55L71.25-9.55 66.4-9.55 66.4-26.35 71.25-26.35Q72.2-26.35 72.62-26.78 73.05-27.2 73.05-28.15L73.05-28.15 73.05-34.2Q73.05-35.15 72.62-35.58 72.2-36 71.25-36L71.25-36 49.95-36Q49-36 48.57-35.58 48.15-35.15 48.15-34.2L48.15-34.2 48.15-28.15Q48.15-27.2 48.57-26.78 49-26.35 49.95-26.35L49.95-26.35 54.9-26.35 54.9-9.55 49.95-9.55Q49-9.55 48.57-9.13 48.15-8.7 48.15-7.75L48.15-7.75 48.15-1.8Q48.15-0.85 48.57-0.43 49 0 49.95 0ZM68.55-5L68.55-4.5 52.65-4.5 52.65-5 60.4-5 60.4-31 52.65-31 52.65-31.5 68.55-31.5 68.55-31 60.9-31 60.9-5 68.55-5ZM90.8-31.1L90.8-31.1 109.2-10.4 109.2-31.5 109.7-31.5 109.7-4.5 109.2-4.5 109.2-9.65 90.3-30.85Q90.25-30.9 90.17-30.95 90.09-31 90.05-31L90.05-31Q90-31 89.97-30.95 89.95-30.9 89.95-30.85L89.95-30.85 89.95-4.5 89.45-4.5 89.45-30.95Q89.45-31.25 89.65-31.4 89.84-31.55 90.05-31.55L90.05-31.55Q90.25-31.55 90.4-31.45 90.55-31.35 90.8-31.1ZM86 0L93.5 0Q94.45 0 94.87-0.43 95.3-0.85 95.3-1.8L95.3-1.8 95.3-18.3 103.84-7.95 103.84-1.8Q103.84-0.85 104.27-0.43 104.7 0 105.65 0L105.65 0 113.15 0Q114.09 0 114.52-0.43 114.95-0.85 114.95-1.8L114.95-1.8 114.95-34.2Q114.95-35.15 114.52-35.58 114.09-36 113.15-36L113.15-36 105.65-36Q104.7-36 104.27-35.58 103.84-35.15 103.84-34.2L103.84-34.2 103.84-23.55 94.15-34.65Q93.5-35.4 92.82-35.7 92.15-36 91.2-36L91.2-36 86-36Q85.05-36 84.62-35.58 84.2-35.15 84.2-34.2L84.2-34.2 84.2-1.8Q84.2-0.85 84.62-0.43 85.05 0 86 0L86 0ZM95.09 0.05L95.09 0.05 88.59 5.45Q88.4 5.65 87.97 5.8 87.55 5.95 87.05 5.95L87.05 5.95 79.55 5.95Q78.34 5.95 77.8 5.4 77.25 4.85 77.25 3.65L77.25 3.65 77.25-28.75Q77.25-29.4 77.42-29.85 77.59-30.3 77.95-30.6L77.95-30.6 84.4-36.05Q84.65-36.25 85.07-36.38 85.5-36.5 86-36.5L86-36.5 91.2-36.5Q92.3-36.5 93.05-36.15 93.8-35.8 94.55-35L94.55-35 98-31 104.05-36.05Q104.3-36.25 104.72-36.38 105.15-36.5 105.65-36.5L105.65-36.5 113.15-36.5Q114.34-36.5 114.9-35.95 115.45-35.4 115.45-34.2L115.45-34.2 115.45-1.8Q115.45-1.15 115.27-0.7 115.09-0.25 114.75 0.05L114.75 0.05 108.25 5.45Q108.05 5.65 107.62 5.8 107.2 5.95 106.7 5.95L106.7 5.95 99.2 5.95Q98 5.95 97.45 5.4 96.9 4.85 96.9 3.65L96.9 3.65 96.9-2.3 95.8-3.65 95.8-1.8Q95.8-1.15 95.62-0.7 95.45-0.25 95.09 0.05ZM147.89 5.95L147.89 5.95 132.14 5.95Q125.59 5.95 122.47 2.55 119.34-0.85 119.34-6.25L119.34-6.25 119.34-20.35Q119.34-23.1 120.14-25.1 120.94-27.1 122.49-28.45L122.49-28.45 128.94-33.9Q130.49-35.2 132.92-35.85 135.34-36.5 138.59-36.5L138.59-36.5 151.09-36.5Q152.29-36.5 152.84-35.95 153.39-35.4 153.39-34.2L153.39-34.2 153.39-28.15Q153.39-27.5 153.22-27.05 153.04-26.6 152.69-26.3L152.69-26.3 146.19-20.9Q145.99-20.7 145.57-20.55 145.14-20.4 144.64-20.4L144.64-20.4 138.14-20.4 138.14-13.2Q138.19-13.3 138.32-13.43 138.44-13.55 138.54-13.65L138.54-13.65 144.99-19.1Q145.24-19.3 145.67-19.43 146.09-19.55 146.59-19.55L146.59-19.55 154.34-19.55Q155.54-19.55 156.09-19 156.64-18.45 156.64-17.25L156.64-17.25 156.64-1.8Q156.64-1.15 156.47-0.7 156.29-0.25 155.94 0.05L155.94 0.05 149.44 5.45Q149.24 5.65 148.82 5.8 148.39 5.95 147.89 5.95ZM138.59 0L154.34 0Q155.29 0 155.72-0.43 156.14-0.85 156.14-1.8L156.14-1.8 156.14-17.25Q156.14-18.2 155.72-18.63 155.29-19.05 154.34-19.05L154.34-19.05 146.59-19.05Q145.64-19.05 145.22-18.63 144.79-18.2 144.79-17.25L144.79-17.25 144.79-9.45 139.94-9.45Q138.79-9.45 138.22-10.05 137.64-10.65 137.64-11.9L137.64-11.9 137.64-23.85Q137.64-25.1 138.39-25.73 139.14-26.35 140.69-26.35L140.69-26.35 151.09-26.35Q152.04-26.35 152.47-26.78 152.89-27.2 152.89-28.15L152.89-28.15 152.89-34.2Q152.89-35.15 152.47-35.58 152.04-36 151.09-36L151.09-36 138.59-36Q132.34-36 129.32-33.5 126.29-31 126.29-25.8L126.29-25.8 126.29-10.2Q126.29-5 129.32-2.5 132.34 0 138.59 0L138.59 0ZM150.69-4.5L140.74-4.5Q137.99-4.5 136.24-4.85 134.49-5.2 133.49-5.98 132.49-6.75 132.12-7.98 131.74-9.2 131.74-10.95L131.74-10.95 131.74-24.95Q131.74-28.5 133.34-30 134.94-31.5 139.74-31.5L139.74-31.5 148.39-31.5 148.39-31 139.74-31Q135.34-31 133.79-29.63 132.24-28.25 132.24-24.95L132.24-24.95 132.24-10.95Q132.24-7.7 133.97-6.35 135.69-5 140.74-5L140.74-5 150.19-5 150.19-14.55 150.69-14.55 150.69-4.5ZM175.99 6.7L175.99 6.7Q171.14 6.7 168.02 5.68 164.89 4.65 163.14 2.95 161.39 1.25 160.72-0.95 160.04-3.15 160.04-5.5L160.04-5.5 160.04-28.75Q160.04-29.4 160.22-29.85 160.39-30.3 160.74-30.6L160.74-30.6 167.19-36.05Q167.44-36.25 167.87-36.38 168.29-36.5 168.79-36.5L168.79-36.5 176.64-36.5Q177.84-36.5 178.39-35.95 178.94-35.4 178.94-34.2L178.94-34.2 178.94-11.4Q178.94-10.95 179.09-10.58 179.24-10.2 179.74-10L179.74-10 179.74-28.75Q179.74-29.4 179.89-29.85 180.04-30.3 180.34-30.55L180.34-30.55 180.39-30.6 186.89-36.05Q187.14-36.25 187.54-36.38 187.94-36.5 188.49-36.5L188.49-36.5 196.09-36.5Q197.29-36.5 197.84-35.95 198.39-35.4 198.39-34.2L198.39-34.2 198.39-9.45Q198.39-7.15 197.74-5.2 197.09-3.25 195.39-1.85L195.39-1.85 188.89 3.55Q187.14 5.05 184.04 5.88 180.94 6.7 175.99 6.7ZM197.89-9.45L197.89-9.45 197.89-34.2Q197.89-35.15 197.47-35.58 197.04-36 196.09-36L196.09-36 188.49-36Q187.54-36 187.12-35.58 186.69-35.15 186.69-34.2L186.69-34.2 186.69-11.4Q186.69-10.4 185.94-9.73 185.19-9.05 182.54-9.05L182.54-9.05Q179.94-9.05 179.19-9.73 178.44-10.4 178.44-11.4L178.44-11.4 178.44-34.2Q178.44-35.15 178.02-35.58 177.59-36 176.64-36L176.64-36 168.79-36Q167.84-36 167.42-35.58 166.99-35.15 166.99-34.2L166.99-34.2 166.99-9.45Q166.99-7.15 167.67-5.28 168.34-3.4 170.07-2.08 171.79-0.75 174.79 0 177.79 0.75 182.44 0.75L182.44 0.75Q187.09 0.75 190.09 0 193.09-0.75 194.82-2.08 196.54-3.4 197.22-5.28 197.89-7.15 197.89-9.45ZM172.49-10.65L172.49-31.5 172.99-31.5 172.99-10.65Q172.99-7.85 174.97-6.13 176.94-4.4 182.49-4.4L182.49-4.4Q188.04-4.4 190.04-6.13 192.04-7.85 192.04-10.65L192.04-10.65 192.04-31.5 192.54-31.5 192.54-10.65Q192.54-7.65 190.44-5.78 188.34-3.9 182.49-3.9L182.49-3.9Q176.64-3.9 174.57-5.78 172.49-7.65 172.49-10.65L172.49-10.65ZM225.39 5.95L225.39 5.95 204.09 5.95Q202.89 5.95 202.34 5.4 201.79 4.85 201.79 3.65L201.79 3.65 201.79-2.3Q201.79-2.95 201.96-3.4 202.14-3.85 202.49-4.15L202.49-4.15 208.54-9.25 208.54-20.4 204.09-20.4Q202.89-20.4 202.34-20.95 201.79-21.5 201.79-22.7L201.79-22.7 201.79-28.75Q201.79-29.4 201.96-29.85 202.14-30.3 202.49-30.6L202.49-30.6 208.94-36.05Q209.19-36.25 209.61-36.38 210.04-36.5 210.54-36.5L210.54-36.5 231.84-36.5Q233.04-36.5 233.59-35.95 234.14-35.4 234.14-34.2L234.14-34.2 234.14-28.15Q234.14-27.5 233.96-27.05 233.79-26.6 233.44-26.3L233.44-26.3 227.49-21.3 227.49-10.05 231.84-10.05Q233.04-10.05 233.59-9.5 234.14-8.95 234.14-7.75L234.14-7.75 234.14-1.8Q234.14-1.15 233.96-0.7 233.79-0.25 233.44 0.05L233.44 0.05 226.94 5.45Q226.74 5.65 226.31 5.8 225.89 5.95 225.39 5.95ZM210.54 0L210.54 0 231.84 0Q232.79 0 233.21-0.43 233.64-0.85 233.64-1.8L233.64-1.8 233.64-7.75Q233.64-8.7 233.21-9.13 232.79-9.55 231.84-9.55L231.84-9.55 226.99-9.55 226.99-26.35 231.84-26.35Q232.79-26.35 233.21-26.78 233.64-27.2 233.64-28.15L233.64-28.15 233.64-34.2Q233.64-35.15 233.21-35.58 232.79-36 231.84-36L231.84-36 210.54-36Q209.59-36 209.16-35.58 208.74-35.15 208.74-34.2L208.74-34.2 208.74-28.15Q208.74-27.2 209.16-26.78 209.59-26.35 210.54-26.35L210.54-26.35 215.49-26.35 215.49-9.55 210.54-9.55Q209.59-9.55 209.16-9.13 208.74-8.7 208.74-7.75L208.74-7.75 208.74-1.8Q208.74-0.85 209.16-0.43 209.59 0 210.54 0ZM229.14-5L229.14-4.5 213.24-4.5 213.24-5 220.99-5 220.99-31 213.24-31 213.24-31.5 229.14-31.5 229.14-31 221.49-31 221.49-5 229.14-5ZM247.89 5.95L247.89 5.95 240.14 5.95Q238.94 5.95 238.39 5.4 237.84 4.85 237.84 3.65L237.84 3.65 237.84-28.75Q237.84-29.4 238.01-29.85 238.19-30.3 238.54-30.6L238.54-30.6 244.99-36.05Q245.24-36.25 245.66-36.38 246.09-36.5 246.59-36.5L246.59-36.5 268.89-36.5Q270.09-36.5 270.64-35.95 271.19-35.4 271.19-34.2L271.19-34.2 271.19-28.25Q271.19-27.6 271.01-27.15 270.84-26.7 270.49-26.4L270.49-26.4 264.89-21.75Q266.04-21.75 266.59-21.2 267.14-20.65 267.14-19.45L267.14-19.45 267.14-13.45Q267.14-12.8 266.96-12.35 266.79-11.9 266.44-11.6L266.44-11.6 259.94-6.2Q259.74-6 259.31-5.85 258.89-5.7 258.39-5.7L258.39-5.7 256.64-5.7 256.64-1.8Q256.64-1.15 256.46-0.7 256.29-0.25 255.94 0.05L255.94 0.05 249.44 5.45Q249.24 5.65 248.81 5.8 248.39 5.95 247.89 5.95ZM246.59 0L254.34 0Q255.29 0 255.71-0.43 256.14-0.85 256.14-1.8L256.14-1.8 256.14-11.65 264.84-11.65Q265.79-11.65 266.21-12.08 266.64-12.5 266.64-13.45L266.64-13.45 266.64-19.45Q266.64-20.4 266.21-20.83 265.79-21.25 264.84-21.25L264.84-21.25 256.14-21.25 256.14-26.45 268.89-26.45Q269.84-26.45 270.26-26.88 270.69-27.3 270.69-28.25L270.69-28.25 270.69-34.2Q270.69-35.15 270.26-35.58 269.84-36 268.89-36L268.89-36 246.59-36Q245.64-36 245.21-35.58 244.79-35.15 244.79-34.2L244.79-34.2 244.79-1.8Q244.79-0.85 245.21-0.43 245.64 0 246.59 0L246.59 0ZM250.74-4.5L250.24-4.5 250.24-31.5 266.19-31.5 266.19-31 250.74-31 250.74-16.7 262.14-16.7 262.14-16.2 250.74-16.2 250.74-4.5ZM292.48 5.95L292.48 5.95 284.38 5.95Q283.13 5.95 282.61 5.4 282.08 4.85 282.08 3.65L282.08 3.65 282.08-2.6 274.53-12.7Q273.33-14.3 272.93-15.5 272.53-16.7 272.53-19.15L272.53-19.15 272.53-28.75Q272.53-29.4 272.71-29.85 272.88-30.3 273.23-30.6L273.23-30.6 279.68-36.05Q279.93-36.25 280.36-36.38 280.78-36.5 281.28-36.5L281.28-36.5 288.98-36.5Q290.18-36.5 290.73-35.95 291.28-35.4 291.28-34.2L291.28-34.2 291.28-26Q291.28-25.55 291.33-25.1 291.38-24.65 291.63-24.15L291.63-24.15 292.23-23.3 292.23-28.75Q292.23-29.4 292.41-29.85 292.58-30.3 292.93-30.6L292.93-30.6 299.38-36.05Q299.63-36.25 300.06-36.38 300.48-36.5 300.98-36.5L300.98-36.5 308.43-36.5Q309.63-36.5 310.18-35.95 310.73-35.4 310.73-34.2L310.73-34.2 310.73-24.6Q310.73-22.15 310.33-20.95 309.93-19.75 308.73-18.15L308.73-18.15 301.23-8 301.23-1.8Q301.23-1.15 301.06-0.7 300.88-0.25 300.53 0.05L300.53 0.05 294.03 5.45Q293.83 5.65 293.41 5.8 292.98 5.95 292.48 5.95ZM290.83 0L298.93 0Q299.88 0 300.31-0.43 300.73-0.85 300.73-1.8L300.73-1.8 300.73-8.15 308.33-18.45Q309.43-20 309.83-21.15 310.23-22.3 310.23-24.6L310.23-24.6 310.23-34.2Q310.23-35.15 309.81-35.58 309.38-36 308.43-36L308.43-36 300.98-36Q300.03-36 299.61-35.58 299.18-35.15 299.18-34.2L299.18-34.2 299.18-26Q299.18-25.5 299.13-24.95 299.08-24.4 298.73-23.9L298.73-23.9 296.43-20.3Q296.18-19.85 295.91-19.65 295.63-19.45 295.23-19.45L295.23-19.45 294.73-19.45Q294.33-19.45 294.06-19.65 293.78-19.85 293.53-20.3L293.53-20.3 291.23-23.9Q290.88-24.4 290.83-24.95 290.78-25.5 290.78-26L290.78-26 290.78-34.2Q290.78-35.15 290.36-35.58 289.93-36 288.98-36L288.98-36 281.28-36Q280.33-36 279.91-35.58 279.48-35.15 279.48-34.2L279.48-34.2 279.48-24.6Q279.48-22.3 279.86-21.15 280.23-20 281.38-18.45L281.38-18.45 289.03-8.2 289.03-1.8Q289.03-0.85 289.46-0.43 289.88 0 290.83 0L290.83 0ZM295.48-13.05L295.48-13.05 295.13-13.05 295.13-4.5 294.63-4.5 294.63-13.05 294.13-13.05Q293.03-13.05 292.16-13.55 291.28-14.05 290.48-15.15L290.48-15.15 285.63-21.9Q285.08-22.65 284.98-23.65 284.88-24.65 284.88-25.75L284.88-25.75 284.88-31.5 285.38-31.5 285.38-25.75Q285.38-24.7 285.48-23.78 285.58-22.85 286.08-22.1L286.08-22.1 290.93-15.35Q291.58-14.35 292.43-13.95 293.28-13.55 294.13-13.55L294.13-13.55 295.48-13.55Q296.43-13.55 297.21-13.98 297.98-14.4 298.73-15.35L298.73-15.35 303.73-22.1Q304.23-22.75 304.33-23.73 304.43-24.7 304.43-25.75L304.43-25.75 304.43-31.5 304.93-31.5 304.93-25.75Q304.93-24.65 304.86-23.68 304.78-22.7 304.18-21.9L304.18-21.9 299.18-15.15Q298.38-14.05 297.51-13.55 296.63-13.05 295.48-13.05Z" opacity="1" transform="matrix(1,0,0,1,0,0)" fill="#000000" class="wordmark-text-0" data-fill-palette-color="primary" id="text-0"></path></svg></g></svg></g></svg></g></svg></g><g><svg viewBox="0 0 65.06148868978931 65.06148868978931" height="65.06148868978931" width="65.06148868978931"><g><svg xmlns="http://www.w3.org/2000/svg" xmlns:xlink="http://www.w3.org/1999/xlink" version="1.1" x="0" y="0" viewBox="0 0 100 100" style="enable-background:new 0 0 100 100;" xml:space="preserve" height="65.06148868978931" width="65.06148868978931" class="icon-icon-0" data-fill-palette-color="accent" id="icon-0"><g fill="#030303" data-fill-palette-color="accent"><path d="M74.988 37.5c0 13.807-11.182 25-24.988 25C50 55.604 44.396 50 37.5 50H24.988C12.5 50 0 42.969 0 25 0 6.641 12.5 0 24.988 0H50c12.5 0 24.988 7.745 24.988 25V37.5z" fill="#000000" data-fill-palette-color="accent"></path></g><path d="M37.5 37.5" fill="#000000" data-fill-palette-color="accent"></path><path d="M37.5 37.5" fill="#000000" data-fill-palette-color="accent"></path><g fill="#030303" data-fill-palette-color="accent"><g fill="#030303" data-fill-palette-color="accent"><path d="M81.189 38.165C80.822 55.078 66.992 68.75 50 68.75h-6.25V62.5c0-3.448-2.808-6.25-6.25-6.25H25.623c-0.391 1.935-0.635 4.004-0.635 6.25V75c0 13.807 11.205 25 25.012 25 0-6.909 5.604-12.5 12.5-12.5h12.488C87.5 87.5 100 80.469 100 62.5 100 47.211 91.297 40.125 81.189 38.165z" fill="#000000" data-fill-palette-color="accent"></path></g></g></svg></g></svg></g></svg></g><defs></defs></svg><rect width="395.52" height="54.32863034026881" fill="none" stroke="none" visibility="hidden"></rect></g></svg></g></svg>